<svg width="30" height="30" viewBox="0 0 30 30" fill="none" xmlns="http://www.w3.org/2000/svg">
<rect x="20.022" y="3.36298" width="8.11049" height="9.46224" rx="2.55644" transform="rotate(42.7275 20.022 3.36298)" fill="#93D5C1"/>
<g filter="url(#filter0_b_107_119)">
<mask id="path-2-inside-1_107_119" fill="white">
<path d="M16.3528 7.33488C16.8593 6.78647 17.7145 6.75253 18.2629 7.25907L22.2349 10.9278C22.7833 11.4343 22.8172 12.2895 22.3107 12.8379L14.5642 21.2247C14.2317 21.5846 13.8076 21.8474 13.3374 21.985L11.0303 22.6601L7.45557 19.3582L7.94553 17.0048C8.04542 16.5251 8.27382 16.0815 8.60628 15.7216L16.3528 7.33488Z"/>
</mask>
<path d="M16.3528 7.33488C16.8593 6.78647 17.7145 6.75253 18.2629 7.25907L22.2349 10.9278C22.7833 11.4343 22.8172 12.2895 22.3107 12.8379L14.5642 21.2247C14.2317 21.5846 13.8076 21.8474 13.3374 21.985L11.0303 22.6601L7.45557 19.3582L7.94553 17.0048C8.04542 16.5251 8.27382 16.0815 8.60628 15.7216L16.3528 7.33488Z" fill="#3A474B" fill-opacity="0.98"/>
<path d="M18.2629 7.25907L18.1817 7.34704V7.34704L18.2629 7.25907ZM16.3528 7.33488L16.2648 7.25362L16.3528 7.33488ZM22.2349 10.9278L22.1536 11.0158L22.2349 10.9278ZM22.3107 12.8379L22.3986 12.9192L22.3107 12.8379ZM14.5642 21.2247L14.4762 21.1434L14.5642 21.2247ZM13.3374 21.985L13.371 22.1L13.3374 21.985ZM11.0303 22.6601L10.949 22.748L10.9988 22.794L11.0639 22.775L11.0303 22.6601ZM7.45557 19.3582L7.33833 19.3338L7.32451 19.4002L7.37431 19.4462L7.45557 19.3582ZM7.94553 17.0048L7.82829 16.9804L7.82829 16.9804L7.94553 17.0048ZM8.60628 15.7216L8.51831 15.6404H8.51831L8.60628 15.7216ZM18.3442 7.17111C17.7472 6.61969 16.8162 6.65663 16.2648 7.25362L16.4408 7.41613C16.9024 6.91631 17.6819 6.88537 18.1817 7.34704L18.3442 7.17111ZM22.3161 10.8398L18.3442 7.17111L18.1817 7.34704L22.1536 11.0158L22.3161 10.8398ZM22.3986 12.9192C22.9501 12.3222 22.9131 11.3912 22.3161 10.8398L22.1536 11.0158C22.6534 11.4774 22.6844 12.2569 22.2227 12.7567L22.3986 12.9192ZM14.6521 21.3059L22.3986 12.9192L22.2227 12.7567L14.4762 21.1434L14.6521 21.3059ZM13.371 22.1C13.8621 21.9563 14.3049 21.6818 14.6521 21.3059L14.4762 21.1434C14.1584 21.4874 13.7532 21.7386 13.3037 21.8701L13.371 22.1ZM11.0639 22.775L13.371 22.1L13.3037 21.8701L10.9966 22.5451L11.0639 22.775ZM11.1115 22.5721L7.53682 19.2703L7.37431 19.4462L10.949 22.748L11.1115 22.5721ZM8.51831 15.6404C8.17112 16.0162 7.93261 16.4794 7.82829 16.9804L8.06276 17.0292C8.15824 16.5707 8.37651 16.1469 8.69425 15.8029L8.51831 15.6404ZM16.2648 7.25362L8.51831 15.6404L8.69425 15.8029L16.4408 7.41613L16.2648 7.25362ZM7.5728 19.3827L8.06276 17.0292L7.82829 16.9804L7.33833 19.3338L7.5728 19.3827Z" fill="url(#paint0_linear_107_119)" mask="url(#path-2-inside-1_107_119)"/>
</g>
<g filter="url(#filter1_b_107_119)">
<rect width="5.40699" height="1.35175" rx="0.675874" transform="matrix(-0.734589 -0.678512 -0.678513 0.734589 21.3179 11.9208)" fill="#93D5C1"/>
</g>
<path d="M11.0303 22.6601L7.45557 19.3583L6.72105 22.8853C6.61703 23.3848 7.08282 23.8151 7.57253 23.6718L11.0303 22.6601Z" fill="#93D5C1"/>
<defs>
<filter id="filter0_b_107_119" x="4.89913" y="4.34386" width="20.3267" height="20.8726" filterUnits="userSpaceOnUse" color-interpolation-filters="sRGB">
<feFlood flood-opacity="0" result="BackgroundImageFix"/>
<feGaussianBlur in="BackgroundImageFix" stdDeviation="1.27822"/>
<feComposite in2="SourceAlpha" operator="in" result="effect1_backgroundBlur_107_119"/>
<feBlend mode="normal" in="SourceGraphic" in2="effect1_backgroundBlur_107_119" result="shape"/>
</filter>
<filter id="filter1_b_107_119" x="11.5951" y="3.41841" width="14.5563" height="14.329" filterUnits="userSpaceOnUse" color-interpolation-filters="sRGB">
<feFlood flood-opacity="0" result="BackgroundImageFix"/>
<feGaussianBlur in="BackgroundImageFix" stdDeviation="2.55644"/>
<feComposite in2="SourceAlpha" operator="in" result="effect1_backgroundBlur_107_119"/>
<feBlend mode="normal" in="SourceGraphic" in2="effect1_backgroundBlur_107_119" result="shape"/>
</filter>
<linearGradient id="paint0_linear_107_119" x1="6.02149" y1="7.17388" x2="17.0204" y2="22.0003" gradientUnits="userSpaceOnUse">
<stop stop-color="white"/>
<stop offset="0.765625" stop-color="white" stop-opacity="0"/>
</linearGradient>
</defs>
</svg>
