<svg width="30" height="30" viewBox="0 0 30 30" fill="none" xmlns="http://www.w3.org/2000/svg">
<path d="M15.3571 19.7557C16.7131 19.2437 22.0272 16.6928 22.2624 8.09241C22.2724 7.72601 22.0813 7.37972 21.7701 7.18608C17.6523 4.62393 12.4365 4.62393 8.31878 7.18608C8.00757 7.37972 7.8164 7.72601 7.82642 8.09241C8.06161 16.6928 13.3757 19.2437 14.7317 19.7557C14.9342 19.8321 15.1547 19.8321 15.3571 19.7557Z" fill="#93D5C1"/>
<g filter="url(#filter0_b_107_8)">
<path d="M7.87441 10.1984L7.22108 10.5718C6.84584 10.7862 6.6115 11.1909 6.62576 11.6228C6.9334 20.946 13.322 23.5994 14.7592 24.0794C14.9483 24.1425 15.141 24.1425 15.3301 24.0794C16.7673 23.5994 23.1559 20.946 23.4636 11.6228C23.4778 11.1909 23.2435 10.7862 22.8682 10.5718L22.2149 10.1984C17.7719 7.65954 12.3175 7.65954 7.87441 10.1984Z" fill="#3A474B"/>
<path d="M7.25079 10.6237L7.90411 10.2504C12.3288 7.72204 17.7606 7.72204 22.1852 10.2504L22.8385 10.6237C23.1952 10.8276 23.4172 11.2119 23.4037 11.6208C23.2504 16.2675 21.5824 19.2476 19.7773 21.1258C17.971 23.0052 16.0242 23.7845 15.3111 24.0226C15.1344 24.0816 14.9549 24.0816 14.7782 24.0226C14.0651 23.7844 12.1184 23.0052 10.3121 21.1258C8.50695 19.2476 6.83893 16.2675 6.6856 11.6208C6.67211 11.2119 6.89411 10.8276 7.25079 10.6237Z" stroke="url(#paint0_linear_107_8)" stroke-width="0.119752"/>
</g>
<path d="M14.4084 16.901C14.4174 16.91 14.4296 16.9151 14.4423 16.9151C14.455 16.9151 14.4672 16.91 14.4762 16.901L18.0527 13.3245C18.3867 12.9905 18.9283 12.9905 19.2623 13.3245C19.5964 13.6586 19.5964 14.2002 19.2623 14.5342L15.0471 18.7494C14.8867 18.9098 14.6692 18.9999 14.4423 18.9999C14.2155 18.9999 13.9979 18.9098 13.8375 18.7494L11.4288 16.3407C11.0948 16.0067 11.0948 15.4651 11.4288 15.1311C11.7628 14.797 12.3044 14.797 12.6385 15.1311L14.4084 16.901Z" fill="#93D5C1" stroke="url(#paint1_linear_107_8)" stroke-width="0.0958016" stroke-linecap="round" stroke-linejoin="round"/>
<defs>
<filter id="filter0_b_107_8" x="4.21631" y="5.88558" width="21.6567" height="20.6498" filterUnits="userSpaceOnUse" color-interpolation-filters="sRGB">
<feFlood flood-opacity="0" result="BackgroundImageFix"/>
<feGaussianBlur in="BackgroundImageFix" stdDeviation="1.20434"/>
<feComposite in2="SourceAlpha" operator="in" result="effect1_backgroundBlur_107_8"/>
<feBlend mode="normal" in="SourceGraphic" in2="effect1_backgroundBlur_107_8" result="shape"/>
</filter>
<linearGradient id="paint0_linear_107_8" x1="6.93939" y1="9.9332" x2="27.8419" y2="25.3476" gradientUnits="userSpaceOnUse">
<stop stop-color="white"/>
<stop offset="0.734375" stop-color="white" stop-opacity="0"/>
</linearGradient>
<linearGradient id="paint1_linear_107_8" x1="11.3701" y1="13.885" x2="16.7589" y2="15.6813" gradientUnits="userSpaceOnUse">
<stop stop-color="white"/>
<stop offset="1" stop-color="white" stop-opacity="0"/>
</linearGradient>
</defs>
</svg>
